HIERARCHY
ROOT RootJoint
{
    OFFSET   0.000000   0.000000   0.000000
    CHANNELS 6 Xposition Yposition Zposition Xrotation Yrotation Zrotation
    JOINT pelvis_lowerback
    {
        OFFSET   0.000000   0.093605   0.000000
        CHANNELS 3 Xrotation Yrotation Zrotation
        JOINT lowerback_torso
        {
            OFFSET   0.000000   0.100000   0.000000
            CHANNELS 3 Xrotation Yrotation Zrotation
            JOINT torso_head
            {
                OFFSET   0.000000   0.282350   0.000000
                CHANNELS 3 Xrotation Yrotation Zrotation
                End Site
                {
                    OFFSET   0.000000   0.192650   0.000000
                }
            }
            JOINT rTorso_Clavicle
            {
                OFFSET  -0.001000   0.157500   0.000000
                CHANNELS 3 Xrotation Yrotation Zrotation
                JOINT rShoulder
                {
                    OFFSET  -0.117647   0.000000   0.000000
                    CHANNELS 3 Xrotation Yrotation Zrotation
                    JOINT rElbow
                    {
                        OFFSET  -0.245000   0.000000   0.000000
                        CHANNELS 3 Xrotation Yrotation Zrotation
                        JOINT rWrist
                        {
                            OFFSET  -0.240000   0.000000   0.000000
                            CHANNELS 3 Xrotation Yrotation Zrotation
                            End Site
                            {
                                OFFSET  -0.116353  -0.002500   0.000000
                            }
                        }
                    }
                }
            }
            JOINT lTorso_Clavicle
            {
                OFFSET   0.001000   0.157500   0.000000
                CHANNELS 3 Xrotation Yrotation Zrotation
                JOINT lShoulder
                {
                    OFFSET   0.117647   0.000000   0.000000
                    CHANNELS 3 Xrotation Yrotation Zrotation
                    JOINT lElbow
                    {
                        OFFSET   0.245000   0.000000   0.000000
                        CHANNELS 3 Xrotation Yrotation Zrotation
                        JOINT lWrist
                        {
                            OFFSET   0.240000   0.000000   0.000000
                            CHANNELS 3 Xrotation Yrotation Zrotation
                            End Site
                            {
                                OFFSET   0.116353  -0.002500   0.000000
                            }
                        }
                    }
                }
            }
        }
    }
    JOINT rHip
    {
        OFFSET  -0.100000  -0.051395   0.000000
        CHANNELS 3 Xrotation Yrotation Zrotation
        JOINT rKnee
        {
            OFFSET   0.000000  -0.410000   0.000000
            CHANNELS 3 Xrotation Yrotation Zrotation
            JOINT rAnkle
            {
                OFFSET   0.000000  -0.390000   0.000000
                CHANNELS 3 Xrotation Yrotation Zrotation
                JOINT rToeJoint
                {
                    OFFSET   0.000000  -0.050000   0.130000
                    CHANNELS 3 Xrotation Yrotation Zrotation
                    End Site
                    {
                        OFFSET  -0.010000   0.002000   0.060000
                    }
                }
            }
        }
    }
    JOINT lHip
    {
        OFFSET   0.100000  -0.051395   0.000000
        CHANNELS 3 Xrotation Yrotation Zrotation
        JOINT lKnee
        {
            OFFSET   0.000000  -0.410000   0.000000
            CHANNELS 3 Xrotation Yrotation Zrotation
            JOINT lAnkle
            {
                OFFSET   0.000000  -0.390000   0.000000
                CHANNELS 3 Xrotation Yrotation Zrotation
                JOINT lToeJoint
                {
                    OFFSET   0.000000  -0.050000   0.130000
                    CHANNELS 3 Xrotation Yrotation Zrotation
                    End Site
                    {
                        OFFSET   0.010000   0.002000   0.060000
                    }
                }
            }
        }
    }
}
MOTION
Frames: 14
Frame Time:   0.016667
  2.501048   0.841944   0.862615 -176.882229   8.505794 -171.292590   4.343571  -1.434660   0.291512   7.040189  -7.069449  -1.978646   8.985204 -15.404194   9.926539   0.799480  -1.950978  17.012714  11.464063   4.212017  45.526403 179.947161  82.092235 -179.950589  10.100250   2.201900  -2.505099   2.441803  -5.686989 -10.468738  12.780896 -30.173389 -35.327877 179.983942 -84.399536 179.990502  20.456344  -4.368870  -1.822083 -30.272790 -13.053163   2.638109  43.716568  -0.000753  -0.000085 -18.154282 -12.616879 -23.122030   2.785736  -0.005394  -0.023792  15.513180  20.271684   5.552899  43.212364  -0.055493  -0.039937  14.240609   2.690362  -8.428849   6.431627   0.001703   0.007533
  2.508665   0.837466   0.839987 -177.200802  10.122368 -172.140223   3.872162  -1.104331   0.686696   7.446785  -6.835581  -1.490362   8.803976 -15.167484   9.825648   0.870661  -1.871119  17.249309   9.455525   5.373556  46.030559 179.950684  82.366237 -179.953888  10.054514   1.347154  -1.691521   2.718704  -4.858630 -11.026488  12.059279 -28.841446 -37.001496 179.973015 -84.863111 179.980051  20.703480  -3.877146  -1.875799 -28.711063 -12.847411   4.682724  43.293879  -0.000134  -0.000676 -18.896703 -11.392314 -22.842336   3.779654  -0.005812  -0.016150  11.347319  18.496595   6.966904  48.251385  -0.071712  -0.058135  14.640245   3.218335  -7.212841   5.988466   0.003915   0.005852
  2.516281   0.832988   0.817359 -177.496660  11.743404 -172.983302   3.398530  -0.777272   1.084548   7.851162  -6.598290  -1.003997   8.623381 -14.930467   9.725644   0.941509  -1.790967  17.485794   7.432571   6.516705  46.576433 179.954460  82.640239 -179.957441  10.020930   0.491846  -0.878821   3.003366  -4.033003 -11.587619  11.390797 -27.491936 -38.635239 179.959970 -85.326686 179.967480  20.950942  -3.385657  -1.931610 -27.159281 -12.587597   6.718962  42.871189   0.000490  -0.001262 -19.642177 -10.171404 -22.547681   4.773571  -0.006098  -0.008501   7.270065  16.630242   8.228544  53.290402  -0.089467  -0.074837  15.028788   3.754648  -5.999864   5.545306   0.006141   0.004188
  2.523898   0.828510   0.794731 -177.769846  13.368530 -173.823105   2.922668  -0.453520   1.485066   8.253307  -6.357604  -0.519559   8.443411 -14.693148   9.626523   1.012022  -1.710523  17.722170   5.393749   7.639897  47.164018 179.958520  82.914241 -179.961277   9.999482  -0.363852  -0.066636   3.295852  -3.210204 -12.152341  10.773387 -26.126354 -40.231895 179.944105 -85.790260 179.952091  21.198768  -2.894414  -1.989519 -25.619632 -12.274292   8.745013  42.448500   0.001118  -0.001844 -20.391329  -8.954373 -22.238026   5.767489  -0.006251  -0.000849   3.274069  14.683859   9.338187  58.329417  -0.108620  -0.089916  15.406118   4.299042  -4.789756   5.102145   0.008379   0.002541
  2.534307   0.830769   0.774333 -177.927607  14.833302 -174.711559   2.828386  -0.184392   1.709574   8.082592  -6.472414  -0.407271   8.467665 -14.394227   9.873084   0.808665  -1.084359  17.805021   4.618429   8.794754  47.881630 179.984830  81.971065 -179.986314  10.061377  -0.655901   0.417614   3.386193  -2.332842 -12.153400  10.533338 -25.072683 -41.833759 179.943529 -86.222337 179.951122  21.405461  -2.267933  -1.397528 -22.984464 -12.193076  10.303993  41.381851   0.002495   0.002582 -21.097506  -7.607487 -21.651513   5.668278  -0.004590  -0.000707  -1.097198  12.195788  10.451448  62.141417  -0.109596  -0.083517  12.947562   5.902780  -3.475032   4.140662   0.015657   0.001967
  2.544717   0.833027   0.753936 -178.062817  16.300274 -175.602164   2.733050   0.084365   1.934524   7.912064  -6.587556  -0.295301   8.490561 -14.095208  10.119189   0.604432  -0.458494  17.890081   3.825916   9.939786  48.617419 -179.994250  81.027888 179.994040  10.125744  -0.947417   0.902215   3.476504  -1.455482 -12.155843  10.327638 -24.013403 -43.417346 179.942754 -86.654414 179.949954  21.605591  -1.639356  -0.808024 -20.353675 -12.041952  11.856831  40.315203   0.003790   0.007033 -21.815502  -6.267918 -21.050017   5.569066  -0.002929  -0.000563  -5.381689   9.633121  11.359822  65.953416  -0.110145  -0.077067  10.444644   7.448338  -2.087925   3.179180   0.022944   0.001515
  2.555126   0.835286   0.733538 -178.175134  17.769095 -176.496150   2.636658   0.352745   2.159924   7.741723  -6.703028  -0.183651   8.512104 -13.796096  10.364851   0.399276   0.167063  17.977369   3.015557  11.074552  49.371994 -179.977180  80.084710 179.978246  10.192580  -1.238378   1.387189   3.566828  -0.578128 -12.159668  10.155453 -22.949379 -44.984097 179.941690 -87.086491 179.948497  21.799191  -1.008758  -0.220868 -17.729835 -11.821388  13.399884  39.248554   0.005002   0.011507 -22.545932  -4.936002 -20.433096   5.469855  -0.001268  -0.000415  -9.596506   7.011419  12.066875  69.765416  -0.110263  -0.070595   7.895072   8.931672  -0.628555   2.217697   0.030237   0.001185
  2.564411   0.841445   0.713155 -179.040857  20.420185 -175.545010   2.038294   1.212328   1.537309   7.273152  -4.976819  -0.593566   8.308510 -14.717672  11.168038  -0.060869  -0.270620  17.872332   3.765294  13.461596  49.834395 179.987999  78.690822 -179.985325  10.140091  -0.623154   1.522781   3.153042  -0.312475 -12.301006  11.548634 -21.511579 -44.333771 179.924771 -87.584387 179.929390  21.048973  -1.337648  -0.390271 -15.741871  -9.604866  13.334136  36.977284   0.004408   0.016610 -22.589172  -3.703029 -20.169106   5.489267  -0.000949  -0.000314 -13.770891   5.918394  11.261016  69.229552  -0.079035  -0.049722   6.858581  10.768979  -0.479404   1.278847   0.026485   0.001597
  2.573697   0.847604   0.692773 -179.970345  23.056876 -174.532801   1.449053   2.078316   0.923441   6.817976  -3.247380  -0.988442   8.117459 -15.641924  11.971337  -0.521846  -0.707444  17.763776   4.503213  15.854304  50.269369 179.960976  77.296930 -179.956690  10.086149  -0.008056   1.658928   2.739918  -0.045809 -12.440420  12.911084 -20.059722 -43.727041 179.898501 -88.082283 179.900931  20.297672  -1.664290  -0.563993 -13.762796  -7.391908  13.191292  34.706015   0.003612   0.021685 -22.638046  -2.470268 -19.904491   5.508679  -0.000630  -0.000214 -17.952955   4.886613  10.378854  68.693677  -0.048004  -0.028558   5.810302  12.603309  -0.295235   0.339996   0.022726   0.001947
  2.582982   0.853763   0.672390 179.029134  25.677369 -173.452032   0.868743   2.950522   0.318113   6.375303  -1.514908  -1.369068   7.939052 -16.568670  12.775172  -0.983707  -1.143380  17.651695   5.231515  18.252199  50.677483 179.939439  75.903036 -179.933536  10.030742   0.606911   1.795662   2.327441   0.221854 -12.577908  14.245133 -18.594921 -43.162289 179.853040 -88.580178 179.853283  19.545248  -1.988626  -0.742017 -11.786586  -5.185142  12.972419  32.434745   0.002616   0.026725 -22.692581  -1.237746 -19.639009   5.528091  -0.000311  -0.000113 -22.144814   3.921706   9.424808  68.157790  -0.017172  -0.007105   4.747848  14.434006  -0.075029  -0.598854   0.018962   0.002236
  2.591432   0.858572   0.652555 178.509268  28.458611 -173.017185   1.210442   3.573183   0.038875   6.157704  -0.491508  -0.918574   7.949291 -17.010348  12.282797  -1.249888   0.523133  16.379474   5.934152  19.845869  50.331077 179.939543  75.117776 -179.935811  10.023519   1.074662   1.123334   2.048108   1.249718 -13.125601  15.902115 -17.682130 -42.981952 179.891917 -87.819604 179.891717  18.510967  -1.548713  -0.212661  -9.511658  -3.880924  12.586577  30.601795   0.002864   0.030170 -21.677244   0.292303 -19.111090   3.196405   0.000086   0.000888 -25.090194   4.062188   9.533448  65.119959  -0.003322   0.009941   3.341987  15.176918   0.590460  -0.910624   0.014174   0.002497
  2.599881   0.863380   0.632721 177.950063  31.236087 -172.540578   1.555432   4.194162  -0.244287   5.932064   0.530142  -0.464195   7.955576 -17.452094  11.789325  -1.479165   2.195131  15.114134   6.654516  21.435351  49.960060 179.939526  74.332517 -179.937969  10.021785   1.542465   0.450940   1.778465   2.280194 -13.668576  17.547905 -16.764780 -42.830144 179.910802 -87.059029 179.910159  17.472849  -1.118440   0.324458  -7.230903  -2.593022  12.149714  28.768846   0.003001   0.033621 -20.675548   1.831407 -18.610115   0.864720   0.000441   0.001903 -28.036346   4.196915   9.649201  62.082123   0.009605   0.027698   1.922227  15.903741   1.277077  -1.222393   0.009385   0.002732
  2.608331   0.868189   0.612886 177.345404  34.009224 -172.016294   1.903792   4.813421  -0.531437   5.698253   1.549962  -0.005647   7.957878 -17.893876  11.294691  -1.671740   3.871775  13.853546   7.394249  23.020281  49.563140 179.939406  73.547257 -179.940028  10.025544   2.010257  -0.221610   1.518378   3.313168 -14.207166  19.183458 -15.843654 -42.706496 179.922019 -86.298454 179.920932  16.430865  -0.697985   0.869221  -4.942136  -1.323532  11.662267  26.935896   0.003028   0.037075 -19.686139   3.378980 -18.135551  -1.466966   0.000755   0.002933 -30.983269   4.325529   9.771766  59.044284   0.021573   0.046114   0.488280  16.613866   1.984790  -1.534163   0.004594   0.002941
  2.618333   0.868857   0.591635 176.622964  35.793657 -171.228188   1.080396   4.253275  -0.742435   6.170440   3.192564  -0.323262   7.614974 -18.867301  10.547327  -1.625244   4.429353  13.117788   7.566260  24.265606  48.772864 179.945901  72.605247 -179.949316  10.016563   2.359910  -0.162056   1.397607   3.363187 -14.391904  19.863384 -14.560679 -42.764169 179.943477 -86.105803 179.942608  15.895238  -0.979094   0.584631  -3.042465  -1.437921  10.874765  25.999224   0.003075   0.033395 -19.713924   3.928825 -18.105558  -3.001625  -0.000740   0.008786 -32.363799   3.452269   8.483628  54.353061   0.020033   0.073175   1.076722  16.027778   1.148755  -2.405463  -0.000511   0.009903
